# xmcd
#
# Track frame offsets: 
#        150
#        13209
#        28206
#        47823
#        62021
#        73744
#        86312
#        96035
#        106458
#        115432
#        127811
#        138558
#        150388
#        165634
#        177824
#        190015
#        201521
#        211549
#        222068
#        231554
#
# Disc length: 3267 seconds
#
# Revision: 0
# Processed by: cddbd v1.5.2PL0 Copyright (c) Steve Scherf et al.
# Submitted via: ExactAudioCopy v1.3
#
DISCID=190cc114
DTITLE=Eddie Cash - Vol II - CD 2
DYEAR=2007
DGENRE=
TTITLE0=In The Ghetto
TTITLE1=Misty
TTITLE2=My Way
TTITLE3=Could I Have This Dance
TTITLE4=Can't Get Use To Losing You
TTITLE5=Moon River
TTITLE6=Color My World
TTITLE7=Burning Love
TTITLE8=It's So Easy
TTITLE9=I Can't Stop Loving You
TTITLE10=His Latest Flame
TTITLE11=Love Me Tender
TTITLE12=There, I've Said It Again
TTITLE13=Twistin' The Night Away
TTITLE14=Annie's Song
TTITLE15=I'm Sorry
TTITLE16=Tragedy
TTITLE17=Young Love
TTITLE18=On The Road Again
TTITLE19=Tell It Like It Is
EXTD=
EXTT0=
EXTT1=
EXTT2=
EXTT3=
EXTT4=
EXTT5=
EXTT6=
EXTT7=
EXTT8=
EXTT9=
EXTT10=
EXTT11=
EXTT12=
EXTT13=
EXTT14=
EXTT15=
EXTT16=
EXTT17=
EXTT18=
EXTT19=
PLAYORDER=
